{
  "accessors": [
    {
      "bufferView": 1,
      "componentType": 5126,
      "count": 65532,
      "max": [
        0.79651546478271484,
        0.96935951709747314,
        0.12001515179872513
      ],
      "min": [
        -0.90458071231842041,
        -0.9818001389503479,
        -1.1750000339816324e-05
      ],
      "type": "VEC3"
    },
    {
      "bufferView": 1,
      "byteOffset": 786384,
      "componentType": 5126,
      "count": 65532,
      "max": [
        0.81081670522689819,
        0.91162019968032837,
        1
      ],
      "min": [
        -0.90754210948944092,
        -0.99869883060455322,
        -1
      ],
      "type": "VEC3"
    },
    {
      "bufferView": 0,
      "componentType": 5125,
      "count": 365061,
      "max": [
        65531
      ],
      "min": [
        0
      ],
      "type": "SCALAR"
    },
    {
      "bufferView": 1,
      "byteOffset": 1572768,
      "componentType": 5126,
      "count": 65532,
      "max": [
        0.70935457944869995,
        0.97142916917800903,
        0.12001582980155945
      ],
      "min": [
        -0.96522867679595947,
        -0.98206633329391479,
        0.00053835002472624183
      ],
      "type": "VEC3"
    },
    {
      "bufferView": 1,
      "byteOffset": 2359152,
      "componentType": 5126,
      "count": 65532,
      "max": [
        0.80915141105651855,
        0.96301710605621338,
        1
      ],
      "min": [
        -0.90964025259017944,
        -0.99998354911804199,
        -0.9993671178817749
      ],
      "type": "VEC3"
    },
    {
      "bufferView": 0,
      "byteOffset": 1460244,
      "componentType": 5125,
      "count": 359745,
      "max": [
        65531
      ],
      "min": [
        0
      ],
      "type": "SCALAR"
    },
    {
      "bufferView": 1,
      "byteOffset": 3145536,
      "componentType": 5126,
      "count": 65532,
      "max": [
        0.68266528844833374,
        0.97892302274703979,
        0.12001097202301025
      ],
      "min": [
        -0.89911043643951416,
        -0.9552232027053833,
        -1.3679999938176479e-05
      ],
      "type": "VEC3"
    },
    {
      "bufferView": 1,
      "byteOffset": 3931920,
      "componentType": 5126,
      "count": 65532,
      "max": [
        0.8076978325843811,
        0.99450027942657471,
        1
      ],
      "min": [
        -0.87653243541717529,
        -0.96731263399124146,
        -1
      ],
      "type": "VEC3"
    },
    {
      "bufferView": 0,
      "byteOffset": 2899224,
      "componentType": 5125,
      "count": 362931,
      "max": [
        65531
      ],
      "min": [
        0
      ],
      "type": "SCALAR"
    },
    {
      "bufferView": 1,
      "byteOffset": 4718304,
      "componentType": 5126,
      "count": 65532,
      "max": [
        0.85597634315490723,
        0.87142229080200195,
        0.12001392245292664
      ],
      "min": [
        -0.98206532001495361,
        -0.89734619855880737,
        -1.3660000149684492e-05
      ],
      "type": "VEC3"
    },
    {
      "bufferView": 1,
      "byteOffset": 5504688,
      "componentType": 5126,
      "count": 65532,
      "max": [
        0.87557864189147949,
        0.8204505443572998,
        1
      ],
      "min": [
        -0.99997973442077637,
        -0.87796694040298462,
        -1
      ],
      "type": "VEC3"
    },
    {
      "bufferView": 0,
      "byteOffset": 4350948,
      "componentType": 5125,
      "count": 348444,
      "max": [
        65531
      ],
      "min": [
        0
      ],
      "type": "SCALAR"
    },
    {
      "bufferView": 1,
      "byteOffset": 6291072,
      "componentType": 5126,
      "count": 65532,
      "max": [
        0.97961527109146118,
        0.79651200771331787,
        0.1200157031416893
      ],
      "min": [
        -0.75435328483581543,
        -0.81646305322647095,
        -1.3670000043930486e-05
      ],
      "type": "VEC3"
    },
    {
      "bufferView": 1,
      "byteOffset": 7077456,
      "componentType": 5126,
      "count": 65532,
      "max": [
        0.99664413928985596,
        0.80205738544464111,
        1
      ],
      "min": [
        -0.81359100341796875,
        -0.81674766540527344,
        -1
      ],
      "type": "VEC3"
    },
    {
      "bufferView": 0,
      "byteOffset": 5744724,
      "componentType": 5125,
      "count": 355140,
      "max": [
        65531
      ],
      "min": [
        0
      ],
      "type": "SCALAR"
    },
    {
      "bufferView": 1,
      "byteOffset": 7863840,
      "componentType": 5126,
      "count": 65532,
      "max": [
        0.98118937015533447,
        0.21915361285209656,
        0.12001366168260574
      ],
      "min": [
        -0.95173680782318115,
        -0.63158047199249268,
        -1.3660000149684492e-05
      ],
      "type": "VEC3"
    },
    {
      "bufferView": 1,
      "byteOffset": 8650224,
      "componentType": 5126,
      "count": 65532,
      "max": [
        0.99978733062744141,
        0.81676077842712402,
        1
      ],
      "min": [
        -0.92842841148376465,
        -0.79638230800628662,
        -1
      ],
      "type": "VEC3"
    },
    {
      "bufferView": 0,
      "byteOffset": 7165284,
      "componentType": 5125,
      "count": 365889,
      "max": [
        65531
      ],
      "min": [
        0
      ],
      "type": "SCALAR"
    },
    {
      "bufferView": 1,
      "byteOffset": 9436608,
      "componentType": 5126,
      "count": 65532,
      "max": [
        0.98118937015533447,
        0.95525985956192017,
        0.11999998986721039
      ],
      "min": [
        -0.96649295091629028,
        -0.19184036552906036,
        -1.3660000149684492e-05
      ],
      "type": "VEC3"
    },
    {
      "bufferView": 1,
      "byteOffset": 10222992,
      "componentType": 5126,
      "count": 65532,
      "max": [
        0.99979871511459351,
        0.96873313188552856,
        1
      ],
      "min": [
        -0.98271477222442627,
        -0.78939932584762573,
        -1
      ],
      "type": "VEC3"
    },
    {
      "bufferView": 0,
      "byteOffset": 8628840,
      "componentType": 5125,
      "count": 360111,
      "max": [
        65531
      ],
      "min": [
        0
      ],
      "type": "SCALAR"
    },
    {
      "bufferView": 1,
      "byteOffset": 11009376,
      "componentType": 5126,
      "count": 32362,
      "max": [
        0.7826804518699646,
        0.98207277059555054,
        0.11995551735162735
      ],
      "min": [
        -0.77504259347915649,
        0.58599531650543213,
        -1.461000010749558e-05
      ],
      "type": "VEC3"
    },
    {
      "bufferView": 1,
      "byteOffset": 11397720,
      "componentType": 5126,
      "count": 32362,
      "max": [
        0.78990578651428223,
        0.99998420476913452,
        1
      ],
      "min": [
        -0.78654152154922485,
        -0.76949739456176758,
        -1
      ],
      "type": "VEC3"
    },
    {
      "bufferView": 0,
      "byteOffset": 10069284,
      "componentType": 5125,
      "count": 180279,
      "max": [
        32361
      ],
      "min": [
        0
      ],
      "type": "SCALAR"
    }
  ],
  "asset": {
    "extras": {
      "author": "Bermu (https://sketchfab.com/bermudavid)",
      "license": "CC-BY-4.0 (http://creativecommons.org/licenses/by/4.0/)",
      "source": "https://sketchfab.com/models/0c538020ab074fb59613b01bd23a7c66",
      "title": "Coin"
    },
    "generator": "Sketchfab-3.50.2",
    "version": "2.0"
  },
  "bufferViews": [
    {
      "buffer": 0,
      "byteLength": 10790400,
      "byteOffset": 0,
      "name": "floatBufferViews",
      "target": 34963
    },
    {
      "buffer": 0,
      "byteLength": 11786064,
      "byteOffset": 10790400,
      "byteStride": 12,
      "name": "floatBufferViews",
      "target": 34962
    }
  ],
  "buffers": [
    {
      "byteLength": 22576464,
      "uri": "scene.bin"
    }
  ],
  "materials": [
    {
      "doubleSided": true,
      "name": "material_0",
      "pbrMetallicRoughness": {
        "baseColorFactor": [
          0.71585589319999998,
          0.67757589679999997,
          0.12817809490000001,
          1
        ],
        "metallicFactor": 1,
        "roughnessFactor": 0.25964365070000001
      }
    }
  ],
  "meshes": [
    {
      "primitives": [
        {
          "attributes": {
            "NORMAL": 1,
            "POSITION": 0
          },
          "indices": 2,
          "material": 0,
          "mode": 4
        }
      ]
    },
    {
      "primitives": [
        {
          "attributes": {
            "NORMAL": 4,
            "POSITION": 3
          },
          "indices": 5,
          "material": 0,
          "mode": 4
        }
      ]
    },
    {
      "primitives": [
        {
          "attributes": {
            "NORMAL": 7,
            "POSITION": 6
          },
          "indices": 8,
          "material": 0,
          "mode": 4
        }
      ]
    },
    {
      "primitives": [
        {
          "attributes": {
            "NORMAL": 10,
            "POSITION": 9
          },
          "indices": 11,
          "material": 0,
          "mode": 4
        }
      ]
    },
    {
      "primitives": [
        {
          "attributes": {
            "NORMAL": 13,
            "POSITION": 12
          },
          "indices": 14,
          "material": 0,
          "mode": 4
        }
      ]
    },
    {
      "primitives": [
        {
          "attributes": {
            "NORMAL": 16,
            "POSITION": 15
          },
          "indices": 17,
          "material": 0,
          "mode": 4
        }
      ]
    },
    {
      "primitives": [
        {
          "attributes": {
            "NORMAL": 19,
            "POSITION": 18
          },
          "indices": 20,
          "material": 0,
          "mode": 4
        }
      ]
    },
    {
      "primitives": [
        {
          "attributes": {
            "NORMAL": 22,
            "POSITION": 21
          },
          "indices": 23,
          "material": 0,
          "mode": 4
        }
      ]
    }
  ],
  "nodes": [
    {
      "children": [
        1
      ],
      "name": "RootNode (gltf orientation matrix)",
      "rotation": [
        -0.70710678118654746,
        -0,
        -0,
        0.70710678118654757
      ]
    },
    {
      "children": [
        2
      ],
      "name": "RootNode (model correction matrix)"
    },
    {
      "children": [
        3,
        4,
        5,
        6,
        7,
        8,
        9,
        10
      ],
      "name": "Coin_deformed.OBJ.cleaner.materialmerger.gles"
    },
    {
      "mesh": 0,
      "name": ""
    },
    {
      "mesh": 1,
      "name": ""
    },
    {
      "mesh": 2,
      "name": ""
    },
    {
      "mesh": 3,
      "name": ""
    },
    {
      "mesh": 4,
      "name": ""
    },
    {
      "mesh": 5,
      "name": ""
    },
    {
      "mesh": 6,
      "name": ""
    },
    {
      "mesh": 7,
      "name": ""
    }
  ],
  "scene": 0,
  "scenes": [
    {
      "name": "OSG_Scene",
      "nodes": [
        0
      ]
    }
  ]
}

